<svg xmlns="http://www.w3.org/2000/svg" width="82" height="82" viewBox="0 0 82 82">
  <g id="_6646438_essentials_filter_remove_ui_icon" data-name="6646438_essentials_filter_remove_ui_icon" transform="translate(0 -2)">
    <path id="Path_122" data-name="Path 122" d="M34.243,60.571c0-16.107,11.853-29.286,26.341-29.286a25.2,25.2,0,0,1,9.483,2.05L72.7,30.407a3.352,3.352,0,0,0,.79-2.05V15.179C73.753,6.1,54.525,2,36.877,2S0,6.1,0,15.179V28.357a2.393,2.393,0,0,0,.79,2.05L28.975,58.814V81.071a3.61,3.61,0,0,0,1.317,2.636c.263.293.79.293,1.317.293s.79,0,1.054-.293L40.3,79.314A31.321,31.321,0,0,1,34.243,60.571ZM5.268,15.179c.263-2.05,10.536-7.321,31.609-7.321s31.345,5.271,31.609,7.321c-.263,2.05-10.536,7.321-31.609,7.321S5.532,17.229,5.268,15.179Z"/>
    <path id="Path_123" data-name="Path 123" d="M21.516,20.516a22.479,22.479,0,1,0,31.79,0A22.584,22.584,0,0,0,21.516,20.516Zm23.913,12.1L41.49,36.551l3.939,3.939a2.785,2.785,0,1,1-3.939,3.939L37.551,40.49l-3.939,3.939a2.785,2.785,0,0,1-3.939-3.939l3.939-3.939-3.939-3.939a2.785,2.785,0,0,1,3.939-3.939l3.939,3.939,3.939-3.939a2.785,2.785,0,1,1,3.939,3.939Z" transform="translate(22.154 24.943)"/>
  </g>
</svg>
