<?xml version="1.0" encoding="utf-8"?>
<!-- Generator: Adobe Illustrator 26.5.0, SVG Export Plug-In . SVG Version: 6.00 Build 0)  -->
<svg version="1.1" id="Layer_1" xmlns="http://www.w3.org/2000/svg" xmlns:xlink="http://www.w3.org/1999/xlink" x="0px" y="0px"
	 viewBox="0 0 82 82" style="enable-background:new 0 0 82 82;" xml:space="preserve">
<style type="text/css">
	.st0{fill:#EBA10C;}
</style>
<g id="_753105_washer_laundry_machine_wash_washing_icon" transform="translate(-6.888 -0.004)">
	<g id="Group_6" transform="translate(6.888 18.287)">
		<path id="Path_54" class="st0" d="M45.2,34.9c-2.5,4-7.3,3.3-8.8,0.1c-4.1,4.4-7.4-0.1-7.4-0.1c0.8,6.5,6.8,11.2,13.4,10.3
			c5.5-0.7,9.8-5.1,10.4-10.6C52.7,34.6,47.3,37.8,45.2,34.9z"/>
		<path id="Path_55" class="st0" d="M0,0v61.4c0.2,1.4,1.4,2.5,2.9,2.3h76.3c1.4,0.1,2.7-0.9,2.9-2.3V0H0z M40.9,50.9
			c-12.8,0-23.1-8.8-23.1-19.7s10.3-19.7,23.1-19.7S64,20.3,64,31.2S53.7,50.9,40.9,50.9z"/>
	</g>
	<path id="Path_56" class="st0" d="M86,0H9.7C8.2,0,6.9,0.8,6.9,1.8v13.3h82V1.8C88.9,0.8,87.6,0,86,0z M22,10
		c-2.3,0-4.1-1.1-4.1-2.5S19.7,5,22,5s4.1,1.1,4.1,2.5S24.2,10,22,10z M35.5,10c-2.3,0-4.1-1.1-4.1-2.5S33.3,5,35.5,5
		s4.1,1.1,4.1,2.5S37.8,10,35.5,10z"/>
</g>
</svg>
