<?xml version="1.0" encoding="utf-8"?>
<!-- Generator: Adobe Illustrator 26.5.0, SVG Export Plug-In . SVG Version: 6.00 Build 0)  -->
<svg version="1.1" id="Layer_1" xmlns="http://www.w3.org/2000/svg" xmlns:xlink="http://www.w3.org/1999/xlink" x="0px" y="0px"
	 viewBox="0 0 82 82" style="enable-background:new 0 0 82 82;" xml:space="preserve">
<style type="text/css">
	.st0{fill:#EBA10C;}
</style>
<g id="_2639855_maintenance_icon" transform="translate(-2 -3)">
	<path id="Path_50" class="st0" d="M42.5,64.3l17.8,17.8c3.9,3.8,10.1,3.7,13.9-0.2c3.7-3.8,3.7-9.9,0-13.7L56.4,50.4L42.5,64.3z"/>
	<path id="Path_51" class="st0" d="M69.2,32.6l-11.8-3l-3-11.8L68.1,4.1c-8.1-2.6-17-0.4-23,5.6c-8.9,8.9-6.1,20.5,2.9,29.4
		s20.5,11.8,29.4,2.9c6-6,8.2-14.9,5.6-23L69.2,32.6z"/>
	<path id="Path_52" class="st0" d="M40.8,34.4L27.9,21.5l-3.7-11.1L9.4,3L2,10.4l7.4,14.8l11.1,3.7l12.9,12.9L40.8,34.4z"/>
	<path id="Path_53" class="st0" d="M60.6,18.1l-48,48c-4.3,4.3-4.3,11.3,0,15.7s11.3,4.3,15.7,0l48-48L60.6,18.1z M20.5,77.6
		c-2,0-3.7-1.7-3.7-3.7s1.7-3.7,3.7-3.7s3.7,1.7,3.7,3.7C24.2,76,22.5,77.6,20.5,77.6z"/>
</g>
</svg>
