<?xml version="1.0" encoding="utf-8"?>
<!-- Generator: Adobe Illustrator 26.5.0, SVG Export Plug-In . SVG Version: 6.00 Build 0)  -->
<svg version="1.1" id="Layer_1" xmlns="http://www.w3.org/2000/svg" xmlns:xlink="http://www.w3.org/1999/xlink" x="0px" y="0px"
	 viewBox="0 0 82 82" style="enable-background:new 0 0 82 82;" xml:space="preserve">
<style type="text/css">
	.st0{fill-rule:evenodd;clip-rule:evenodd;fill:#EBA10C;}
</style>
<g id="_x31_18_x2C__forest_x2C__camping_x2C__jungle_x2C__tree_x2C__pines" transform="translate(-26.001 -110.91)">
	<g id="Group_7" transform="translate(26.001 110.91)">
		<path id="Path_57" class="st0" d="M37.8,70.1V82h6.3V70.1H37.8z M11.3,48.9L0,68.3h14.2l0.1-0.1l9.2-15.9
			c-1.8,0.1-3.6-0.1-5.3-0.5C15.8,51.2,13.5,50.2,11.3,48.9z M15.7,31.9L7.2,46.4h3.9c0.2,0,0.4,0.1,0.5,0.3c2.1,1.3,4.4,2.3,6.7,3
			c2.1,0.5,4.3,0.7,6.5,0.4l2.2-3.8h-4.4c-0.2,0-0.4-0.1-0.5-0.3c-0.3-0.5-0.3-1.1,0-1.6l7.3-12.5c-2,1.4-4.4,2.1-6.8,2.1
			C20.2,33.9,17.8,33.2,15.7,31.9z M27.2,17.7h1.1l-6-11.4l-5.7,11.4h0.8c0.1,0,0.1,0,0.2,0c0.1-0.1,0.3,0,0.4,0.1
			c1.3,0.9,2.9,1.4,4.5,1.5c1.6,0,3.1-0.5,4.3-1.4C27,17.7,27.1,17.7,27.2,17.7z M28.8,27.8c-0.4,0-0.7-0.5-0.7-1.1
			c0-0.3,0.1-0.5,0.2-0.8l0.9-1.7L27,20.1c-1.3,0.9-2.9,1.3-4.4,1.3c-1.7,0-3.4-0.5-4.8-1.5l-4.9,9.5h2.6c0.1,0,0.2,0,0.3,0.1
			c2,1.4,4.4,2.1,6.8,2.2c2.4,0,4.7-0.8,6.6-2.2c0.4-0.2,0.8,0,0.9,0.6c0,0.1,0,0.2,0.1,0.4l1.6-2.7L28.8,27.8L28.8,27.8z
			 M19.6,70.6v10.7h2.1V70.6H19.6z M64.4,17.7c0.1,0,0.1,0,0.2,0h0.8L59.6,6.2l-4.9,11.4h0.1c0.1,0,0.2,0,0.2,0.1
			c1.3,0.9,2.8,1.4,4.3,1.4c1.6,0,3.2-0.5,4.5-1.5C64.1,17.7,64.2,17.6,64.4,17.7L64.4,17.7z M66.2,29.5c0.1-0.1,0.2-0.1,0.3-0.1
			h2.6L64.2,20c-1.4,0.9-3.1,1.4-4.8,1.5c-1.6,0-3.1-0.5-4.4-1.3l-2.3,4.2l0.9,1.6c0.1,0.2,0.2,0.5,0.2,0.8c0,0.6-0.3,1.1-0.7,1.1
			h-2.9l1.6,2.8c0-0.1,0-0.3,0.1-0.4c0.2-0.6,0.6-0.8,0.9-0.6c1.9,1.4,4.2,2.2,6.6,2.2C61.8,31.7,64.2,30.9,66.2,29.5L66.2,29.5z
			 M70.4,46.6c0.1-0.2,0.3-0.3,0.4-0.3h3.9l-8.4-14.5c-2.1,1.3-4.5,2-6.9,2.1c-2.4,0-4.8-0.8-6.8-2.2l7.3,12.5
			c0.1,0.2,0.2,0.5,0.2,0.8c0,0.6-0.3,1.1-0.7,1.1h-4.4l2.2,3.8c2.2,0.3,4.4,0.2,6.5-0.4C66,49,68.3,48,70.4,46.6L70.4,46.6z
			 M67.8,68.3H82L70.7,48.9c-2.1,1.3-4.4,2.3-6.8,2.9c-1.8,0.4-3.6,0.6-5.4,0.5l9.2,15.8C67.7,68.2,67.8,68.3,67.8,68.3L67.8,68.3z
			 M62.4,81.3V70.6h-2.1v10.7H62.4z M46.1,12.7h1.3L40.8,0l-6.4,12.7h1c0.1,0,0.1,0,0.2,0c0.1-0.1,0.3,0,0.4,0.1
			c1.5,1,3.2,1.6,5,1.6c1.7,0,3.4-0.6,4.7-1.6C45.9,12.7,46,12.7,46.1,12.7z M48.3,25.6L48.3,25.6L48.3,25.6L48.3,25.6L48.3,25.6
			L48.3,25.6L48.3,25.6L48.3,25.6L48.3,25.6L48.3,25.6L48.3,25.6L48.3,25.6L48.3,25.6l0.1-0.1l0,0h0l0,0h0l0,0h0l0,0h0l0,0h0.1
			l2.9,0l-5.6-10.4c-1.4,0.9-3.1,1.4-4.8,1.5c-1.9,0-3.7-0.6-5.3-1.6l-5.1,9.9l-0.3,0.6h3c0.1,0,0.2,0,0.3,0.1
			c2.2,1.5,4.8,2.3,7.4,2.4C43.7,28,46.2,27.1,48.3,25.6z M52.8,44.2c0.1-0.2,0.3-0.3,0.5-0.3l4.4,0l-9.3-16
			c-2.2,1.4-4.7,2.2-7.3,2.3c-2.7,0-5.3-0.8-7.6-2.3l-9.3,16h4.4c0.2,0,0.4,0.1,0.5,0.3c3.6,2.4,7.8,3.7,12.1,3.8
			C45.4,48,49.4,46.6,52.8,44.2z M28.9,46.4L16.4,67.9h49.2L53.1,46.5c-3.5,2.4-7.7,3.7-11.9,3.8C36.8,50.2,32.5,48.9,28.9,46.4
			L28.9,46.4z"/>
	</g>
</g>
</svg>
