<?xml version="1.0" encoding="utf-8"?>
<!-- Generator: Adobe Illustrator 26.5.0, SVG Export Plug-In . SVG Version: 6.00 Build 0)  -->
<svg version="1.1" id="Layer_1" xmlns="http://www.w3.org/2000/svg" xmlns:xlink="http://www.w3.org/1999/xlink" x="0px" y="0px"
	 viewBox="0 0 82 82" style="enable-background:new 0 0 82 82;" xml:space="preserve">
<style type="text/css">
	.st0{fill:#EBA10C;}
</style>
<path id="_8673534_ic_fluent_people_community_filled_icon" class="st0" d="M52.3,54.6c4,0,7.2,3.6,7.2,8V67c0.5,10-6.2,15-18.2,15
	c-11.9,0-18.7-5-18.7-14.8v-4.6c0-4.4,3.2-8,7.2-8L52.3,54.6z M7.2,31.9h17.9c-0.3,1.5-0.5,3-0.5,4.6c0,4.8,1.7,9.4,4.9,13l0.7,0.7
	h-0.4c-1.2,0-2.4,0.2-3.5,0.6c-3.7,1.5-6.4,4.6-7.3,8.5h-0.1C6.8,59.2,0,54.3,0,44.4v-4.6C0,35.4,3.2,31.9,7.2,31.9z M74.8,31.9
	c4,0,7.2,3.6,7.2,8v4.4c0.5,10-6.2,15-18.2,15l-0.7,0c-0.9-3.7-3.5-6.9-7-8.4c-1-0.4-2-0.6-3.1-0.7l-0.8,0h-0.4
	c3.6-3.6,5.6-8.5,5.6-13.7c0-1.5-0.2-3.1-0.5-4.6L74.8,31.9z M41,22.8c6.8,0,12.3,6.1,12.3,13.7S47.8,50.1,41,50.1
	S28.7,44,28.7,36.4S34.2,22.8,41,22.8z M18.4,0c6.8,0,12.3,6.1,12.3,13.7s-5.5,13.7-12.3,13.7S6.1,21.2,6.1,13.7S11.7,0,18.4,0z
	 M63.5,0c6.8,0,12.3,6.1,12.3,13.7s-5.5,13.7-12.3,13.7s-12.3-6.1-12.3-13.7S56.7,0,63.5,0z"/>
</svg>
