<?xml version="1.0" encoding="utf-8"?>
<!-- Generator: Adobe Illustrator 26.5.0, SVG Export Plug-In . SVG Version: 6.00 Build 0)  -->
<svg version="1.1" id="Layer_1" xmlns="http://www.w3.org/2000/svg" xmlns:xlink="http://www.w3.org/1999/xlink" x="0px" y="0px"
	 viewBox="0 0 82 82" style="enable-background:new 0 0 82 82;" xml:space="preserve">
<style type="text/css">
	.st0{fill:#EBA10C;}
</style>
<path id="_1608385_o_sun_icon" class="st0" d="M68.7,41c0-3.5-0.7-7-2.2-10.2c-1.4-3.2-3.4-6-5.9-8.4c-8.1-7.6-20-9.8-30.3-5.6
	C27,18,24,19.9,21.4,22.3c-2.5,2.4-4.5,5.3-5.9,8.4c-2.9,6.5-2.9,14,0,20.5c1.4,3.2,3.4,6,5.9,8.4c8.1,7.6,20,9.8,30.3,5.6
	c3.3-1.3,6.3-3.2,8.8-5.6c2.5-2.4,4.5-5.3,5.9-8.4C67.9,48,68.7,44.5,68.7,41z M81.9,53.7c-0.1,0.5-0.5,0.8-1,0.9l-14,4.4v14
	c0,0.5-0.2,0.9-0.6,1.2c-0.4,0.3-0.9,0.4-1.4,0.2l-14-4.3l-8.6,11.3c-0.6,0.7-1.6,0.8-2.3,0.2c-0.1-0.1-0.2-0.2-0.2-0.2l-8.6-11.3
	l-14,4.3c-0.5,0.2-1,0.1-1.4-0.2c-0.4-0.3-0.6-0.7-0.6-1.2V59L1,54.6c-0.5-0.1-0.8-0.5-1-0.9c-0.2-0.4-0.1-0.9,0.2-1.3L8.9,41
	L0.3,29.6c-0.3-0.4-0.4-0.9-0.2-1.3c0.1-0.5,0.5-0.8,1-0.9l14-4.4V9c0-0.5,0.2-0.9,0.6-1.2c0.4-0.3,0.9-0.4,1.4-0.2l14,4.3l8.6-11.4
	c0.6-0.7,1.7-0.7,2.4-0.1c0,0,0.1,0.1,0.1,0.1l8.6,11.4l14-4.3c0.5-0.2,1-0.1,1.4,0.2C66.7,8,66.9,8.5,66.9,9v14l14,4.4
	c0.5,0.1,0.8,0.5,1,0.9c0.2,0.4,0.1,0.9-0.2,1.3L73.1,41l8.6,11.4C82,52.7,82.1,53.2,81.9,53.7z"/>
</svg>
