<svg xmlns="http://www.w3.org/2000/svg" width="82" height="82" viewBox="0 0 82 82">
  <path id="_8673534_ic_fluent_people_community_filled_icon" data-name="8673534_ic_fluent_people_community_filled_icon" d="M54.263,57.639c3.962,0,7.173,3.567,7.173,7.968l0,4.381C61.91,79.956,55.238,85,43.264,85,31.34,85,24.545,80.038,24.545,70.161V65.608c0-4.4,3.212-7.968,7.173-7.968ZM9.173,34.873H27.111a20.161,20.161,0,0,0-.516,4.553A19.2,19.2,0,0,0,31.485,52.4l.664.688-.431,0a10.25,10.25,0,0,0-3.536.628,12.071,12.071,0,0,0-7.321,8.516l-.141,0C8.8,62.234,2,57.271,2,47.394V42.841C2,38.44,5.212,34.873,9.173,34.873Zm67.634,0c3.962,0,7.173,3.567,7.173,7.968l0,4.381c.478,9.968-6.194,15.012-18.167,15.012l-.69-.008a12.126,12.126,0,0,0-6.991-8.384,10.272,10.272,0,0,0-3.057-.724l-.808-.031-.432,0a19.089,19.089,0,0,0,5.555-13.664,20.15,20.15,0,0,0-.516-4.553ZM42.99,25.766c6.792,0,12.3,6.116,12.3,13.66s-5.505,13.66-12.3,13.66-12.3-6.116-12.3-13.66S36.2,25.766,42.99,25.766ZM20.446,3c6.791,0,12.3,6.116,12.3,13.66s-5.506,13.66-12.3,13.66S8.149,24.2,8.149,16.66,13.654,3,20.446,3ZM65.535,3c6.792,0,12.3,6.116,12.3,13.66s-5.505,13.66-12.3,13.66-12.3-6.116-12.3-13.66S58.743,3,65.535,3Z" transform="translate(-2 -3)" fill="#212121"/>
</svg>
