<svg xmlns="http://www.w3.org/2000/svg" width="82" height="82" viewBox="0 0 82 82">
  <path id="_1608385_o_sun_icon" data-name="1608385_o_sun_icon" d="M110.875,41.977a24.749,24.749,0,0,0-2.185-10.233,26.446,26.446,0,0,0-5.907-8.424,28.68,28.68,0,0,0-30.3-5.631,27.907,27.907,0,0,0-8.836,5.631,26.446,26.446,0,0,0-5.907,8.424,25.054,25.054,0,0,0,0,20.466,26.446,26.446,0,0,0,5.907,8.424,28.68,28.68,0,0,0,30.3,5.631,27.907,27.907,0,0,0,8.836-5.631,26.446,26.446,0,0,0,5.907-8.424A24.749,24.749,0,0,0,110.875,41.977Zm13.254,12.682a1.3,1.3,0,0,1-.96.916l-14.022,4.4V73.98a1.412,1.412,0,0,1-.624,1.19,1.457,1.457,0,0,1-1.393.183l-14.022-4.3L84.463,82.4a1.607,1.607,0,0,1-2.5,0L73.322,71.05,59.3,75.354a1.457,1.457,0,0,1-1.393-.183,1.412,1.412,0,0,1-.624-1.19V59.97l-14.022-4.4a1.3,1.3,0,0,1-.96-.916,1.374,1.374,0,0,1,.192-1.328l8.644-11.355L42.492,30.623a1.4,1.4,0,0,1-.192-1.328,1.3,1.3,0,0,1,.96-.916l14.022-4.4V9.974a1.412,1.412,0,0,1,.624-1.19A1.457,1.457,0,0,1,59.3,8.6l14.022,4.3L81.966,1.549a1.693,1.693,0,0,1,2.5,0L93.107,12.9l14.022-4.3a1.457,1.457,0,0,1,1.393.183,1.412,1.412,0,0,1,.624,1.19v14.01l14.022,4.4a1.3,1.3,0,0,1,.96.916,1.4,1.4,0,0,1-.192,1.328l-8.644,11.355,8.644,11.355A1.374,1.374,0,0,1,124.129,54.659Z" transform="translate(-42.214 -1)"/>
</svg>
