<svg xmlns="http://www.w3.org/2000/svg" width="82" height="82" viewBox="0 0 82 82">
  <g id="_753105_washer_laundry_machine_wash_washing_icon" data-name="753105_washer_laundry_machine_wash_washing_icon" transform="translate(-6.888 -0.004)">
    <g id="Group_6" data-name="Group 6" transform="translate(6.888 18.287)">
      <path id="Path_54" data-name="Path 54" d="M36.256,41.437c-2.451,3.992-7.285,3.291-8.825.14-4.063,4.414-7.377-.145-7.377-.145a11.955,11.955,0,0,0,23.751-.291S38.357,44.308,36.256,41.437Z" transform="translate(8.916 -6.522)" fill="#241f20"/>
      <path id="Path_55" data-name="Path 55" d="M6.888,18.287V79.671A2.633,2.633,0,0,0,9.747,82H86.031a2.634,2.634,0,0,0,2.857-2.333V18.287ZM47.775,69.176c-12.769,0-23.121-8.836-23.121-19.738S35,29.7,47.775,29.7s23.119,8.838,23.119,19.738S60.542,69.176,47.775,69.176Z" transform="translate(-6.888 -18.287)" fill="#241f20"/>
    </g>
    <path id="Path_56" data-name="Path 56" d="M86.031,0H9.747C8.165,0,6.888.813,6.888,1.812V15.071h82V1.812C88.888.813,87.61,0,86.031,0ZM21.978,10.049c-2.265,0-4.1-1.125-4.1-2.511s1.835-2.511,4.1-2.511,4.1,1.123,4.1,2.511S24.244,10.049,21.978,10.049Zm13.538,0c-2.263,0-4.1-1.125-4.1-2.511s1.837-2.511,4.1-2.511,4.1,1.123,4.1,2.511S37.781,10.049,35.516,10.049Z" fill="#241f20"/>
  </g>
</svg>
