<svg xmlns="http://www.w3.org/2000/svg" width="82" height="82" viewBox="0 0 82 82">
  <g id="_2639855_maintenance_icon" data-name="2639855_maintenance_icon" transform="translate(-2 -3)">
    <path id="Path_50" data-name="Path 50" d="M16.758,31.54l17.8,17.8a9.83,9.83,0,0,0,13.9-13.9l-17.8-17.8Z" transform="translate(25.741 32.78)"/>
    <path id="Path_51" data-name="Path 51" d="M45.547,32.542,33.726,29.588,30.772,17.767,44.458,4.081A22.784,22.784,0,0,0,21.415,9.665c-8.9,8.9-6.053,20.484,2.851,29.384S44.75,50.8,53.649,41.9a22.764,22.764,0,0,0,5.584-23.04Z" transform="translate(23.688 0.012)"/>
    <path id="Path_52" data-name="Path 52" d="M40.775,34.389,27.85,21.464,24.157,10.386,9.386,3,2,10.386,9.386,25.157,20.464,28.85,33.389,41.775Z"/>
    <path id="Path_53" data-name="Path 53" d="M55.253,8.879,7.246,56.886A11.079,11.079,0,0,0,22.915,72.555L70.922,24.548ZM15.079,68.411a3.693,3.693,0,1,1,3.693-3.693A3.694,3.694,0,0,1,15.079,68.411Z" transform="translate(5.386 9.199)"/>
  </g>
</svg>
