<svg xmlns="http://www.w3.org/2000/svg" width="82" height="82" viewBox="0 0 82 82">
  <g id="_x31_18_x2C__forest_x2C__camping_x2C__jungle_x2C__tree_x2C__pines" transform="translate(-26.001 -110.91)">
    <g id="Group_7" data-name="Group 7" transform="translate(26.001 110.91)">
      <path id="Path_57" data-name="Path 57" d="M63.817,181.023V192.91h6.326V181.023Zm-26.47-21.237L26,179.256H40.172l.064-.119,9.243-15.871a18.582,18.582,0,0,1-5.321-.54A24.394,24.394,0,0,1,37.347,159.786ZM41.691,142.8l-8.452,14.488h3.94a.591.591,0,0,1,.457.265,23.469,23.469,0,0,0,6.742,2.958,17.284,17.284,0,0,0,6.482.385l2.2-3.773H48.636a.613.613,0,0,1-.48-.3,1.628,1.628,0,0,1-.046-1.584l7.285-12.5a12.607,12.607,0,0,1-6.782,2.143A13.387,13.387,0,0,1,41.691,142.8ZM53.2,128.567h1.115l-5.956-11.439-5.736,11.439h.838a.465.465,0,0,1,.161.027.458.458,0,0,1,.416.055,8.373,8.373,0,0,0,4.535,1.456,7.714,7.714,0,0,0,4.344-1.447A.483.483,0,0,1,53.2,128.567Zm1.629,10.11c-.375-.036-.676-.522-.676-1.126a1.49,1.49,0,0,1,.208-.788l.867-1.667-2.218-4.084a8.407,8.407,0,0,1-4.437,1.337,9.1,9.1,0,0,1-4.812-1.465l-4.91,9.46h2.646a.513.513,0,0,1,.312.11,12.607,12.607,0,0,0,6.805,2.18,11.665,11.665,0,0,0,6.58-2.2c.358-.238.774.028.93.6a1.842,1.842,0,0,1,.052.366l1.583-2.72H54.829Zm-9.2,42.832v10.742h2.143V181.509Zm44.749-52.915a.473.473,0,0,1,.161-.027h.838l-5.736-11.439-4.865,11.439h.07a.524.524,0,0,1,.243.091,7.685,7.685,0,0,0,4.339,1.447,8.35,8.35,0,0,0,4.535-1.456A.459.459,0,0,1,90.381,128.594Zm1.82,11.86a.483.483,0,0,1,.306-.11h2.646l-4.9-9.46a9.141,9.141,0,0,1-4.819,1.465,8.41,8.41,0,0,1-4.437-1.337l-2.253,4.158.855,1.584a1.467,1.467,0,0,1,.214.8c0,.623-.318,1.126-.711,1.126H76.2l1.623,2.784a1.518,1.518,0,0,1,.057-.43c.15-.568.566-.834.925-.6a11.675,11.675,0,0,0,6.579,2.2A12.641,12.641,0,0,0,92.2,140.454Zm4.171,17.1a.571.571,0,0,1,.45-.265h3.94L92.316,142.8a13.415,13.415,0,0,1-6.927,2.079,12.566,12.566,0,0,1-6.845-2.189l7.279,12.491a1.54,1.54,0,0,1,.219.815c0,.623-.323,1.127-.711,1.127H80.9l2.2,3.773a17.339,17.339,0,0,0,6.528-.385A23.576,23.576,0,0,0,96.372,157.551Zm-2.577,21.7H108l-11.347-19.47a24.307,24.307,0,0,1-6.811,2.94,18.534,18.534,0,0,1-5.361.54l9.22,15.816A1.394,1.394,0,0,1,93.795,179.256ZM88.37,192.251V181.509H86.233v10.742ZM72.114,123.612H73.46l-6.615-12.7-6.372,12.7h1.045a.566.566,0,0,1,.173.028.481.481,0,0,1,.428.055,9.157,9.157,0,0,0,4.957,1.594,8.472,8.472,0,0,0,4.748-1.584A.526.526,0,0,1,72.114,123.612Zm2.166,12.931.006-.009h.006l.012-.009.006-.009h.006l.006-.009h.012l.006-.009h.006l.012-.009h.006l.006-.009h.017l.006-.009h.017l.011-.009h.012l.011-.009h.012l.006-.009h.035l.011-.009h.109l2.941-.009-5.633-10.367a9.283,9.283,0,0,1-4.847,1.475,10.07,10.07,0,0,1-5.258-1.612l-5.124,9.873-.33.631h3.01a.5.5,0,0,1,.312.119,13.831,13.831,0,0,0,7.435,2.372A12.807,12.807,0,0,0,74.28,136.543Zm4.541,18.6a.567.567,0,0,1,.462-.265l4.425-.009L74.4,138.888a13.572,13.572,0,0,1-7.273,2.271,14.532,14.532,0,0,1-7.551-2.28l-9.318,15.99h4.431a.591.591,0,0,1,.457.265,22.6,22.6,0,0,0,12.073,3.819A20.929,20.929,0,0,0,78.821,155.143Zm-23.969,2.217L42.373,178.77H91.588L79.121,157.378A21.832,21.832,0,0,1,67.214,161.2,23.326,23.326,0,0,1,54.852,157.359Z" transform="translate(-26.001 -110.91)" fill-rule="evenodd"/>
    </g>
  </g>
</svg>
